<svg width="64" height="64" viewBox="0 0 64 64" fill="none" xmlns="http://www.w3.org/2000/svg">
<g clip-path="url(#clip0_2_110)">
<g clip-path="url(#clip1_2_110)">
<path d="M52.249 39.3201L49.3947 30.2313L42.0335 36.3906L32.7946 33.7617L25.2832 40.8223L15.894 38.7191L18.6732 49.2351L37.8272 52.6903L51.0472 41.4984L52.249 39.3201Z" fill="#B89267"/>
<path d="M53.0001 25.7996L41.9584 36.3906L32.3439 34.2123L27.2362 39.6956L24.0814 40.8974L10.6361 36.3906V32.9354L12.4388 29.6304L7.932 26.4005L7.40619 23.0955L18.1474 13.3308L27.2362 14.157L34.8978 8.29815L48.268 11.9036L50.2961 15.9597L47.5168 19.8656L51.8734 22.6448L53.0001 25.7996Z" fill="#E4C7B0"/>
<path d="M13.7785 28.8091L27.089 15.1529L46.6225 20.5981L32.7071 33.995L13.7785 28.8091Z" fill="#B89267"/>
<path d="M37.6696 53.1593L32.5669 34.1157M33.1569 9.48719C33.6049 9.05132 34.1572 8.73752 34.761 8.57573C35.3648 8.41395 35.9999 8.40958 36.6059 8.56303L46.831 11.1754C47.5557 11.3627 48.2178 11.739 48.7495 12.266C49.2811 12.7929 49.6634 13.4515 49.8571 14.1746C50.0509 14.8977 50.0492 15.6592 49.8522 16.3814C49.6552 17.1036 49.27 17.7605 48.736 18.285L26.853 39.7062C26.4046 40.1484 25.8491 40.4666 25.2408 40.6296C24.6325 40.7926 23.9923 40.7948 23.3829 40.6361L13.2001 38.0123C12.4753 37.8251 11.8133 37.4487 11.2816 36.9218C10.7499 36.3949 10.3677 35.7362 10.1739 35.0131C9.9802 34.2901 9.9819 33.5286 10.1789 32.8064C10.3759 32.0842 10.761 31.4273 11.2951 30.9027L33.1569 9.48719Z" stroke="black" stroke-width="2" stroke-linecap="round" stroke-linejoin="round"/>
<path d="M49.4947 29.5802L51.6889 37.769C51.9037 38.5674 51.895 39.4095 51.6638 40.2034C51.4326 40.9972 50.9877 41.7123 50.3777 42.2705L39.4282 52.1895C38.9275 52.6477 38.3238 52.9786 37.6683 53.1542C37.0127 53.3299 36.3245 53.3451 35.6618 53.1987L21.2198 50.0834C20.4124 49.9049 19.6696 49.5081 19.0724 48.9362C18.4752 48.3643 18.0467 47.6394 17.8335 46.8405L15.6393 38.6517" stroke="black" stroke-width="2" stroke-linecap="round" stroke-linejoin="round"/>
<path d="M51.2875 27.8071C51.8215 27.2826 52.2067 26.6256 52.4036 25.9035C52.6006 25.1813 52.6023 24.4197 52.4086 23.6967C52.2148 22.9736 51.8326 22.315 51.3009 21.788C50.7692 21.2611 50.1072 20.8848 49.3824 20.6975L19.7361 13.0609C19.1306 12.9009 18.4937 12.902 17.8887 13.0641C17.2837 13.2262 16.7316 13.5437 16.2871 13.985L8.74379 21.3811C8.20976 21.9057 7.82458 22.5626 7.6276 23.2848C7.43062 24.007 7.42892 24.7685 7.62266 25.4916C7.8164 26.2146 8.19865 26.8733 8.73032 27.4002C9.262 27.9272 9.92405 28.3035 10.6488 28.4908L40.3106 36.1006C40.9162 36.2605 41.5531 36.2594 42.1581 36.0973C42.7631 35.9352 43.3152 35.6177 43.7596 35.1764L51.2875 27.8071Z" stroke="black" stroke-width="2" stroke-linecap="round" stroke-linejoin="round"/>
</g>
</g>
<defs>
<clipPath id="clip0_2_110">
<rect width="64" height="64" fill="white"/>
</clipPath>
<clipPath id="clip1_2_110">
<rect width="52.5745" height="52.5745" fill="white" transform="translate(-0.195129 13.4121) rotate(-15)"/>
</clipPath>
</defs>
</svg>
